_________________________  Visit us at _________________________
  
http://p2pdl.com  ____________________________  http://p2pdl.com

 
http://www.shotpix.com/images/04508624208405062614.jpg

Silent Hill Revelation 2012 BRRip 720p x264 AAC - PRiSTiNE [P2PDL]
				
Genre: Horror | Mystery | Thriller
When her father disappears, Heather Mason is drawn into a strange and terrifying alternate 
reality that holds answers to the horrific nightmares that have plagued her since childhood.
Director: Michael J. Bassett
Stars:  Adelaide Clemens, Kit Harington, Sean Bean
Rated: PG 13

Info:  
http://www.imdb.com/title/tt0938330/
 
http://www.rottentomatoes.com/m/silent_hill_revelation/

General
Complete name                  : Silent Hill Revelation 2012 BRRip 720p x264 AAC - PRiSTiNE [P2PDL].mp4
Format                         : MPEG-4
Format profile                 : Base Media / Version 2
File size                      : 532 MiB
Duration                       : 1h 34mn
Overall bit rate mode          : Variable
Overall bit rate               : 785 Kbps

Source                         : 720p Bluray ALLiANCE (Thanks)

Video
Format                         : AVC
Format/Info                    : Advanced Video Codec
Width                          : 1 280 pixels
Height                         : 536 pixels
Display aspect ratio           : 2.40:1
Frame rate mode                : Variable
Frame rate                     : 23.976 fps
Stream size                    : 474 MiB (89%)
Writing library                : x264 core 129

Audio
Format                         : AAC
Bit rate                       : 79.9 Kbps
Channel(s)                     : 2 channels
Channel positions              : Front: L R
Sampling rate                  : 48.0 KHz
Stream size                    : 54.1 MiB (10%)
Language                       : English

Subtitle                       : Yes ( English)


Screens: 
http://www.shotpix.com/images/58386781802749891621.jpg 
http://www.shotpix.com/images/46316571132949034374.jpg 
http://www.shotpix.com/images/93778156257330732205.jpg 
http://www.shotpix.com/images/74715873384197247827.jpg

Thumbs: 
http://www.shotpix.com/images/72042056570391090447.jpg

----------------------------------------------------------------------------------------------------


Recommend to you to use latest version of VLC player. Install K-Lite Codec Pack or shark007 codecs
in case of any kind of problem in playback (For non-VLC Media Player users). Alternatively, install
Core AVC codecs, the fastest decoder that there is coupled with Community Center Codec Pack and play
on Windows Media Player Classic. Check sample to be sure.
Enjoy!

Greets to: VYTO, a2zRG, MusiK_KinG, Neon, Kuroyukihime, TorDigger, Ash968, StyLishSaLH and staff members at
ExtraTorrent, TPB, H33T, KAT, 1337x, PublicHD, Ahashare, BTScene, SilverTorrent, LimeTorrents, TorrentMafia,
P2PDL, and all others.

Encoder Notes: Looking For Early Access To Anything You Can Provide DVDScr, R5, DVDR, BluRay, Direct
Audio, Early Music Releases, Seedboxes, Dedicated Servers anything u can provide, Advance / Promo CDs/
DVDs. If You Got anything to offer contact me at "prg@hush.com".